<!-- Generated by IcoMoon.io -->
<svg version="1.1" xmlns="http://www.w3.org/2000/svg" width="32" height="32" viewBox="0 0 32 32">
<title>exclamation-mark</title>
<path fill="#e1e1e1" d="M23.824 4.093c1.436 0 2.791 0.387 4.066 1.162s2.312 1.888 3.11 3.34c0.766 1.452 1.148 3.162 1.148 5.13s-0.479 3.888-1.436 5.76c-0.319 0.678-0.893 1.549-1.722 2.614-0.818 1.018-1.6 1.916-2.415 2.784l0.023-0.025-3.014 3.050-2.153-3.582c1.535-0.969 2.846-2.124 3.949-3.458l0.022-0.027c1.148-1.355 1.722-2.598 1.722-3.727 0-0.58-0.127-1.049-0.383-1.404-1.018 0.756-2.299 1.21-3.687 1.21-0.016 0-0.031-0-0.047-0h0.002c-0.989 0-1.93-0.307-2.823-0.92-0.921-0.582-1.665-1.365-2.184-2.291l-0.017-0.032c-0.574-0.936-0.861-1.904-0.861-2.904 0-1.13 0.335-2.21 1.005-3.243 0.644-1.034 1.496-1.88 2.502-2.498l0.033-0.019c1.020-0.613 2.073-0.92 3.158-0.92zM6.65 4.093c1.436 0 2.791 0.387 4.066 1.162s2.312 1.888 3.11 3.34c0.766 1.452 1.148 3.162 1.148 5.13 0 1.387-0.176 2.63-0.526 3.727-0.351 1.13-0.957 2.307-1.818 3.533-0.829 1.162-1.61 2.13-2.344 2.904-0.734 0.807-2.009 2.146-3.827 4.017l-2.153-3.582c1.535-0.969 2.846-2.124 3.949-3.458l0.022-0.027c1.148-1.355 1.722-2.598 1.722-3.727 0-0.58-0.127-1.049-0.383-1.404-1.018 0.756-2.299 1.21-3.687 1.21-0.016 0-0.031-0-0.047-0h0.002c-0.989 0-1.93-0.307-2.823-0.92-0.921-0.582-1.665-1.365-2.184-2.291l-0.017-0.032c-0.574-0.936-0.861-1.904-0.861-2.904 0-1.13 0.319-2.21 0.957-3.243s1.483-1.872 2.535-2.517c1.020-0.613 2.073-0.92 3.158-0.92z"></path>
</svg>
