<!-- Generated by IcoMoon.io -->
<svg version="1.1" xmlns="http://www.w3.org/2000/svg" width="32" height="32" viewBox="0 0 32 32">
<title>home-1</title>
<path fill="#d31342" d="M31.317 15.646c0.235-0.255 0.379-0.598 0.379-0.973 0-0.434-0.192-0.823-0.495-1.087l-0.002-0.001-13.506-11.818c-0.613-0.536-1.595-0.525-2.196 0.026l-13.552 12.422c-0.289 0.263-0.47 0.641-0.47 1.061 0 0.388 0.154 0.74 0.405 0.998l-0-0 0.34 0.354c0.564 0.587 1.475 0.656 2.033 0.155l1.013-0.907v13.278c0 0.815 0.66 1.475 1.474 1.475h5.283c0.814 0 1.474-0.659 1.474-1.475v-9.289h6.738v9.289c-0.012 0.814 0.57 1.474 1.385 1.474h5.598c0.814 0 1.475-0.66 1.475-1.475v-13.091l0.624 0.549c0.345 0.304 1.068 0.060 1.616-0.543l0.384-0.422z"></path>
</svg>
