<svg aria-hidden="true" style="position: absolute; width: 0; height: 0; overflow: hidden;" version="1.1" xmlns="http://www.w3.org/2000/svg" xmlns:xlink="http://www.w3.org/1999/xlink">
<defs>
<symbol id="arrow-right" viewBox="0 0 32 32">
<path d="M19.414 27.414l10-10c0.362-0.362 0.586-0.862 0.586-1.414s-0.224-1.052-0.586-1.414l-10-10c-0.364-0.377-0.874-0.611-1.439-0.611-1.105 0-2 0.895-2 2 0 0.564 0.234 1.074 0.61 1.438l0.001 0.001 6.586 6.586h-19.172c-1.105 0-2 0.895-2 2s0.895 2 2 2v0h19.172l-6.586 6.586c-0.39 0.39-0.586 0.902-0.586 1.414s0.195 1.024 0.586 1.414c0.362 0.362 0.862 0.586 1.414 0.586s1.052-0.224 1.414-0.586v0z"></path>
</symbol>
<symbol id="close" viewBox="0 0 32 32">
<path fill="none" stroke="#fff" style="stroke: var(--color1, #fff)" stroke-linejoin="miter" stroke-linecap="butt" stroke-miterlimit="4" stroke-width="2" d="M2.519 2l26.963 28M2 29.481l28-26.963"></path>
</symbol>
<symbol id="exclamation-mark" viewBox="0 0 32 32">
<path fill="#e1e1e1" style="fill: var(--color2, #e1e1e1)" d="M23.824 4.093c1.436 0 2.791 0.387 4.066 1.162s2.312 1.888 3.11 3.34c0.766 1.452 1.148 3.162 1.148 5.13s-0.479 3.888-1.436 5.76c-0.319 0.678-0.893 1.549-1.722 2.614-0.818 1.018-1.6 1.916-2.415 2.784l0.023-0.025-3.014 3.050-2.153-3.582c1.535-0.969 2.846-2.124 3.949-3.458l0.022-0.027c1.148-1.355 1.722-2.598 1.722-3.727 0-0.58-0.127-1.049-0.383-1.404-1.018 0.756-2.299 1.21-3.687 1.21-0.016 0-0.031-0-0.047-0h0.002c-0.989 0-1.93-0.307-2.823-0.92-0.921-0.582-1.665-1.365-2.184-2.291l-0.017-0.032c-0.574-0.936-0.861-1.904-0.861-2.904 0-1.13 0.335-2.21 1.005-3.243 0.644-1.034 1.496-1.88 2.502-2.498l0.033-0.019c1.020-0.613 2.073-0.92 3.158-0.92zM6.65 4.093c1.436 0 2.791 0.387 4.066 1.162s2.312 1.888 3.11 3.34c0.766 1.452 1.148 3.162 1.148 5.13 0 1.387-0.176 2.63-0.526 3.727-0.351 1.13-0.957 2.307-1.818 3.533-0.829 1.162-1.61 2.13-2.344 2.904-0.734 0.807-2.009 2.146-3.827 4.017l-2.153-3.582c1.535-0.969 2.846-2.124 3.949-3.458l0.022-0.027c1.148-1.355 1.722-2.598 1.722-3.727 0-0.58-0.127-1.049-0.383-1.404-1.018 0.756-2.299 1.21-3.687 1.21-0.016 0-0.031-0-0.047-0h0.002c-0.989 0-1.93-0.307-2.823-0.92-0.921-0.582-1.665-1.365-2.184-2.291l-0.017-0.032c-0.574-0.936-0.861-1.904-0.861-2.904 0-1.13 0.319-2.21 0.957-3.243s1.483-1.872 2.535-2.517c1.020-0.613 2.073-0.92 3.158-0.92z"></path>
</symbol>
<symbol id="facebook" viewBox="0 0 32 32">
<path fill="#fea5bb" style="fill: var(--color3, #fea5bb)" d="M16 32c8.837 0 16-7.163 16-16s-7.163-16-16-16-16 7.163-16 16 7.163 16 16 16z"></path>
<path fill="#fff" style="fill: var(--color1, #fff)" d="M20.446 15.982h-2.61v9.619h-3.955v-9.619h-1.881v-3.38h1.881v-2.187c0-1.564 0.739-4.014 3.99-4.014l2.929 0.012v3.281h-2.125c-0.349 0-0.839 0.175-0.839 0.921v1.989h2.955l-0.346 3.377z"></path>
</symbol>
<symbol id="github" viewBox="0 0 32 32">
<path fill="#fea5bb" style="fill: var(--color3, #fea5bb)" d="M32 16c0 8.837-7.163 16-16 16s-16-7.163-16-16 7.163-16 16-16 16 7.163 16 16z"></path>
<path fill="#fff" style="fill: var(--color1, #fff)" d="M16 6.588c-5.169 0-9.412 4.242-9.412 9.412 0 4.411 3.095 8.419 7.206 9.412v-3.114c-0.163 0.041-0.35 0.065-0.543 0.065-0.233 0-0.458-0.035-0.671-0.099l0.016 0.004c-0.556-0.164-1.008-0.535-1.344-1.1-0.214-0.361-0.593-0.752-0.988-0.723l-0.097-1.099c0.855-0.073 1.595 0.521 2.034 1.259 0.195 0.328 0.419 0.52 0.708 0.605 0.278 0.082 0.578 0.043 0.926-0.080 0.088-0.698 0.407-0.959 0.648-1.326v-0.001c-2.451-0.366-3.428-1.666-3.816-2.693-0.514-1.363-0.238-3.066 0.671-4.142 0.018-0.021 0.050-0.076 0.037-0.114-0.417-1.258 0.091-2.299 0.11-2.41 0.481 0.142 0.559-0.143 2.089 0.786l0.264 0.159c0.111 0.066 0.076 0.028 0.186 0.020 0.589-0.166 1.268-0.267 1.968-0.278l0.007-0c0.717 0.011 1.404 0.114 2.058 0.299l-0.056-0.014 0.086 0.009c-0.007-0.001 0.023-0.005 0.075-0.036 1.911-1.157 1.842-0.779 2.355-0.946 0.019 0.111 0.519 1.169 0.107 2.411-0.056 0.171 1.657 1.739 0.708 4.256-0.388 1.027-1.365 2.328-3.816 2.693v0.001c0.314 0.479 0.692 0.734 0.69 1.722v3.887c4.111-0.993 7.206-5 7.206-9.412 0-5.169-4.242-9.412-9.412-9.412z"></path>
</symbol>
<symbol id="home-1" viewBox="0 0 32 32">
<path fill="#d31342" style="fill: var(--color4, #d31342)" d="M31.317 15.646c0.235-0.255 0.379-0.598 0.379-0.973 0-0.434-0.192-0.823-0.495-1.087l-0.002-0.001-13.506-11.818c-0.613-0.536-1.595-0.525-2.196 0.026l-13.552 12.422c-0.289 0.263-0.47 0.641-0.47 1.061 0 0.388 0.154 0.74 0.405 0.998l-0-0 0.34 0.354c0.564 0.587 1.475 0.656 2.033 0.155l1.013-0.907v13.278c0 0.815 0.66 1.475 1.474 1.475h5.283c0.814 0 1.474-0.659 1.474-1.475v-9.289h6.738v9.289c-0.012 0.814 0.57 1.474 1.385 1.474h5.598c0.814 0 1.475-0.66 1.475-1.475v-13.091l0.624 0.549c0.345 0.304 1.068 0.060 1.616-0.543l0.384-0.422z"></path>
</symbol>
<symbol id="icon1" viewBox="0 0 21 32">
<path d="M0 0h21.12v32h-21.12z"></path>
</symbol>
<symbol id="icon2" viewBox="0 0 32 32">
<path d="M0 0h32v32h-32z"></path>
</symbol>
<symbol id="icon3" viewBox="0 0 28 32">
<path d="M0 0h28.16v32h-28.16z"></path>
</symbol>
<symbol id="telegram" viewBox="0 0 32 32">
<path fill="#fea5bb" style="fill: var(--color3, #fea5bb)" d="M32 16c0 8.837-7.163 16-16 16s-16-7.163-16-16 7.163-16 16-16 16 7.163 16 16z"></path>
<path fill="#fff" style="fill: var(--color1, #fff)" d="M12.867 18.375l-0.318 4.169c0.454 0 0.651-0.182 0.887-0.401l2.13-1.9 4.415 3.017c0.81 0.421 1.38 0.199 1.599-0.695l2.898-12.672 0.001-0.001c0.257-1.117-0.433-1.554-1.222-1.28l-17.032 6.086c-1.162 0.421-1.145 1.026-0.198 1.3l4.355 1.264 10.115-5.907c0.476-0.294 0.909-0.131 0.553 0.163l-8.182 6.857z"></path>
</symbol>
</defs>
</svg>
